<?xml version="1.0" standalone="no"?>
<!DOCTYPE svg PUBLIC "-//W3C//DTD SVG 20010904//EN"
 "http://www.w3.org/TR/2001/REC-SVG-20010904/DTD/svg10.dtd">
<svg version="1.0" xmlns="http://www.w3.org/2000/svg"
 width="144.000000pt" height="50.000000pt" viewBox="0 0 144.000000 50.000000"
 preserveAspectRatio="xMidYMid meet">

<g transform="translate(0.000000,50.000000) scale(0.100000,-0.100000)"
fill="#000000" stroke="none">
<path d="M70 462 l-55 -18 0 -130 c0 -128 1 -132 30 -179 22 -35 46 -57 86
-79 52 -28 57 -29 90 -16 52 21 127 97 139 139 5 20 10 87 10 149 l0 113 -37
16 c-57 24 -195 27 -263 5z m150 -82 c11 -11 20 -28 20 -38 0 -12 11 -21 33
-27 28 -9 32 -14 32 -45 0 -30 -4 -36 -31 -44 -22 -7 -33 -18 -40 -40 -16 -54
-94 -45 -94 10 0 18 -6 24 -22 24 -25 0 -58 27 -58 48 0 24 31 52 57 52 17 0
23 6 23 22 0 25 27 58 47 58 7 0 22 -9 33 -20z"/>
<path d="M166 371 c-4 -5 3 -7 14 -4 23 6 26 13 6 13 -8 0 -17 -4 -20 -9z"/>
<path d="M213 300 c0 -36 2 -50 4 -32 2 17 2 47 0 65 -2 17 -4 3 -4 -33z"/>
<path d="M84 285 c-8 -20 2 -45 18 -45 10 0 10 3 -1 9 -8 5 -12 18 -8 30 6 24
-1 29 -9 6z"/>
<path d="M1232 358 c-16 -16 -15 -25 2 -31 21 -8 40 17 23 31 -10 9 -17 8 -25
0z"/>
<path d="M852 343 c2 -10 10 -18 18 -18 8 0 16 8 18 18 2 12 -3 17 -18 17 -15
0 -20 -5 -18 -17z"/>
<path d="M1380 337 c0 -17 -8 -25 -32 -32 -40 -12 -64 -51 -54 -89 8 -34 49
-55 71 -36 12 10 18 10 30 0 9 -7 17 -11 18 -9 2 2 1 46 -1 97 -3 70 -7 92
-18 92 -8 0 -14 -10 -14 -23z m0 -90 c0 -37 -15 -58 -36 -50 -14 5 -20 64 -7
76 3 4 15 7 25 7 14 0 18 -8 18 -33z"/>
<path d="M463 265 c-27 -76 -28 -85 -13 -85 10 0 20 7 24 15 3 9 19 15 41 15
24 0 35 -4 35 -15 0 -9 9 -15 21 -15 13 0 19 5 16 13 -2 6 -15 45 -28 85 -19
60 -26 72 -45 72 -18 0 -26 -13 -51 -85z m71 -7 c6 -25 4 -28 -19 -28 -24 0
-26 2 -19 38 12 66 20 64 38 -10z"/>
<path d="M1052 312 c-8 -17 -9 -28 -2 -30 5 -2 10 -25 10 -52 0 -40 4 -50 20
-55 11 -3 28 -2 37 4 18 10 16 12 -9 15 -8 0 -14 19 -16 44 -2 33 0 42 12 42
9 0 16 5 16 10 0 6 -7 10 -15 10 -8 0 -15 9 -15 20 0 29 -23 24 -38 -8z"/>
<path d="M628 299 c-28 -16 -22 -47 13 -64 36 -19 33 -41 -5 -38 -33 2 -34
-15 -2 -23 61 -15 93 52 36 76 -37 15 -34 36 4 32 28 -3 36 12 10 22 -22 8
-36 7 -56 -5z"/>
<path d="M748 299 c-28 -16 -22 -47 13 -64 36 -19 33 -41 -5 -38 -33 2 -34
-15 -2 -23 61 -15 93 52 36 76 -37 15 -34 36 4 32 28 -3 36 12 10 22 -22 8
-36 7 -56 -5z"/>
<path d="M938 299 c-28 -16 -22 -47 13 -64 36 -19 33 -41 -5 -37 -33 3 -34
-15 -2 -24 46 -11 84 15 71 49 -3 6 -19 20 -36 29 -34 20 -30 41 7 32 26 -7
34 10 8 20 -22 8 -36 7 -56 -5z"/>
<path d="M855 240 c0 -50 3 -60 18 -60 14 0 17 10 17 60 0 50 -3 60 -17 60
-15 0 -18 -10 -18 -60z"/>
<path d="M1230 240 c0 -47 3 -60 15 -60 12 0 15 13 15 60 0 47 -3 60 -15 60
-12 0 -15 -13 -15 -60z"/>
<path d="M1152 193 c2 -10 10 -18 18 -18 8 0 16 8 18 18 2 12 -3 17 -18 17
-15 0 -20 -5 -18 -17z"/>
</g>
</svg>
