<svg width="2438" height="2438" viewBox="0 0 2438 2438" fill="none" xmlns="http://www.w3.org/2000/svg">
<path d="M1214.59 2424.27C1885.39 2424.27 2429.18 1884.62 2429.18 1218.93C2429.18 553.248 1885.39 13.6016 1214.59 13.6016C543.791 13.6016 0 553.248 0 1218.93C0 1884.62 543.791 2424.27 1214.59 2424.27Z" fill="url(#paint0_linear_1353_34266)"/>
<path d="M1209.57 8.01516C1107.55 8.81516 632.802 193.16 538.414 217.473C906.326 51.4612 1542.94 588.959 1547.96 1153.56C1552.98 1718.16 1461.81 2249.68 935.044 2385.2C1031.91 2408.43 1131.26 2419.68 1230.86 2418.68C1901.62 2412.9 2440.63 1868.43 2434.81 1202.78C2428.98 537.134 1880.33 2.23515 1209.57 8.01516Z" fill="url(#paint1_linear_1353_34266)"/>
<g opacity="0.44">
<path d="M1204.15 13.5965C1172.82 13.7965 1141.89 15.7885 1111.16 18.1805C1738.94 60.0325 2237.8 575.408 2243.22 1209.96C2248.84 1844.52 1759.03 2368.46 1132.25 2421.07C1162.98 2423.07 1193.9 2424.46 1225.23 2424.06C1895.99 2418.29 2435.01 1873.81 2429.18 1208.16C2423.36 542.724 1874.9 7.61848 1204.15 13.5965Z" fill="#EA2565"/>
</g>
<g opacity="0.76">
<path d="M2.81238 1232.09C3.01238 1263.18 5.02138 1293.87 7.43038 1324.36C49.6044 701.361 559.098 336.856 1198.53 331.276C1837.96 325.696 2375.77 681.237 2428.79 1303.43C2430.8 1272.94 2432.2 1242.25 2431.8 1211.16C2425.97 545.517 1877.32 10.6111 1206.56 16.3901C536.003 21.9701 -3.01162 566.443 2.81238 1232.09Z" fill="#EA2565"/>
</g>
<g opacity="0.61">
<path d="M1225.64 2424.07C1256.97 2423.87 1287.89 2421.87 1318.62 2419.48C690.838 2377.63 191.987 1862.26 186.565 1227.7C180.942 593.148 670.755 69.2015 1297.53 16.5885C1266.81 14.5955 1235.88 13.2005 1204.55 13.5995C533.792 19.3785 -5.22354 563.852 0.601458 1229.49C6.42446 1894.94 554.876 2430.05 1225.64 2424.07Z" fill="#00F9F9"/>
</g>
<g opacity="0.39">
<path d="M2437.62 1221.92C2437.42 1190.83 2435.41 1160.14 2433 1129.65C2390.83 1752.64 1871.49 2247.69 1232.06 2253.07C592.636 2258.45 64.6632 1772.57 11.6472 1150.57C9.6392 1181.06 8.2332 1211.75 8.6352 1242.84C14.4592 1908.49 563.113 2443.39 1233.87 2437.62C1904.63 2431.84 2443.44 1887.57 2437.62 1221.92Z" fill="white"/>
</g>
<g opacity="0.23">
<path d="M1209.17 0.0463098C1193.91 0.24631 1170.41 4.43132 1141.09 11.6053C1736.13 84.9453 2241.01 583.779 2246.43 1195.22C2251.85 1822.59 1731.32 2343.75 1114.78 2406.33C1152.94 2409.52 1191.5 2411.11 1230.46 2410.71C1901.21 2404.93 2440.23 1860.46 2434.4 1194.81C2428.58 529.164 1880.12 -5.72769 1209.17 0.0463098Z" fill="#FF97C6"/>
</g>
<path d="M1310.59 855.819C1255.76 758.364 1006.94 761.752 891.266 778.692L897.894 1539.99C971.194 1454.49 1071.61 1337.11 1103.54 1299.84C1343.73 1019.84 1336.3 901.458 1310.59 855.819Z" fill="white"/>
<path d="M1432.49 804.204C1431.81 803.947 1431.06 803.899 1430.36 804.067C1429.65 804.234 1429 804.609 1428.51 805.143C1428.01 805.678 1427.69 806.348 1427.57 807.067C1427.46 807.787 1427.56 808.525 1427.87 809.186C1490.33 941.717 1415.62 1129.05 1199.93 1380.96C1162.98 1424.21 1034.25 1574.48 961.956 1658.58C947.095 1675.92 959.748 1702.42 982.641 1702.22L1226.24 1700.03C1522.06 1697.44 1724.69 1491.57 1722.28 1228.7V1226.11C1720.67 1032.99 1608.81 873.957 1432.49 804.204Z" fill="white"/>
<path d="M1531.3 1799.08C1530.11 1794.7 1529.81 1790.12 1530.41 1785.62C1531.02 1781.12 1532.51 1776.78 1534.81 1772.87C1537.11 1768.95 1540.17 1765.53 1543.81 1762.81C1547.45 1760.09 1551.59 1758.13 1556 1757.03C1574.87 1752.25 1593.15 1762.21 1598.37 1781.54C1603.59 1801.08 1591.54 1819.01 1573.67 1823.6C1554.79 1828.38 1536.32 1817.61 1531.3 1799.08Z" fill="white"/>
<path d="M1603.79 1873.22C1634.52 1859.07 1652.99 1834.55 1656.81 1801.67C1661.03 1764.6 1647.17 1734.11 1614.84 1713.58C1585.32 1694.85 1553.99 1694.05 1523.26 1709.8C1493.34 1725.14 1477.27 1750.65 1474.66 1784.33C1474.46 1787.32 1473.66 1789.12 1472.05 1790.11C1471.85 1795.72 1472.25 1801.33 1473.25 1806.85C1474.06 1811.51 1475.2 1816.11 1476.67 1820.6C1479.28 1820.6 1480.08 1822.2 1482.29 1826.98C1502.98 1873.62 1557.6 1894.54 1603.79 1873.22ZM1505.19 1799.68C1500.57 1765.6 1523.06 1735.3 1556.6 1730.32C1591.34 1725.14 1621.06 1747.86 1626.28 1780.74C1631.91 1816.42 1607.61 1845.11 1575.27 1850.3C1541.53 1855.48 1509.6 1831.96 1505.19 1799.68Z" fill="white"/>
<path d="M964.566 1846.51C935.045 1846.71 910.947 1846.31 894.477 1845.12C817.763 1839.14 789.045 1805.06 778.401 1777.36C749.481 1701.83 816.959 1579.26 978.824 1412.85C1304.76 1077.83 1329.46 928.763 1292.91 862.796C1258.17 800.018 1155.55 786.865 1075.62 786.865C985.653 786.865 892.871 810.98 892.067 811.179L891.867 778.894C906.125 776.104 1243.11 700.571 1323.64 846.057C1385.9 958.657 1281.47 1151.97 1004.13 1436.96C805.311 1641.44 797.881 1730.32 811.337 1765C823.988 1798.08 865.158 1807.85 897.289 1810.44C1005.13 1818.81 1480.09 1786.92 1484.9 1786.53L1487.31 1821.2C1470.44 1822.2 1132.86 1844.92 964.566 1846.51Z" fill="white"/>
<path d="M866.16 637.591C1693.76 600.92 1431.48 1068.47 1369.03 1171.3C1362.11 1182.73 1354.39 1193.65 1345.93 1203.99L979.226 1658.18L958.942 1681.3" stroke="white" stroke-width="2" stroke-miterlimit="10"/>
<path d="M828.405 639.78C829.248 644.221 829.197 648.785 828.254 653.206C827.312 657.627 825.497 661.816 822.917 665.527C820.337 669.239 817.042 672.398 813.226 674.821C809.41 677.244 805.149 678.882 800.692 679.639C781.613 682.828 764.342 671.667 760.526 651.939C759.674 647.497 759.718 642.929 760.656 638.504C761.594 634.079 763.408 629.887 765.99 626.173C768.572 622.459 771.87 619.299 775.691 616.878C779.512 614.458 783.778 612.826 788.239 612.078C807.319 608.889 824.992 621.046 828.405 639.78Z" fill="white"/>
<path d="M762.536 562.456C730.806 574.214 710.522 597.133 704.095 629.817C697.067 666.487 708.513 697.777 739.039 720.696C766.954 741.622 798.082 744.811 830.013 731.458C861.142 718.504 879.213 694.19 884.235 660.908C884.635 657.918 885.441 650.544 887.247 649.747C887.815 646.053 887.882 642.299 887.447 638.587C887.047 633.804 888.247 631.412 887.047 626.829C884.436 626.429 881.825 622.644 880.019 617.661C862.949 569.63 810.132 544.719 762.536 562.456ZM855.116 643.369C856.924 677.647 832.222 706.147 798.483 708.538C763.54 710.93 735.625 686.018 733.015 652.938C730.203 617.065 756.715 590.16 789.245 587.569C822.984 584.777 853.108 610.685 855.116 643.371V643.369Z" fill="white"/>
<defs>
<linearGradient id="paint0_linear_1353_34266" x1="228.343" y1="1069.47" x2="2657.53" y2="1069.47" gradientUnits="userSpaceOnUse">
<stop stop-color="#3B6AB3"/>
<stop offset="0.043" stop-color="#3176BC"/>
<stop offset="0.146" stop-color="#1F8ECE"/>
<stop offset="0.265" stop-color="#11A0DC"/>
<stop offset="0.406" stop-color="#07ADE6"/>
<stop offset="0.592" stop-color="#02B4EB"/>
<stop offset="1" stop-color="#00B6ED"/>
</linearGradient>
<linearGradient id="paint1_linear_1353_34266" x1="857.016" y1="1112.1" x2="2661.19" y2="1025.45" gradientUnits="userSpaceOnUse">
<stop offset="0.06" stop-color="#00B7F1"/>
<stop offset="0.116" stop-color="#0DB0EB"/>
<stop offset="0.632" stop-color="#8671B7"/>
<stop offset="0.86" stop-color="#B658A2"/>
</linearGradient>
</defs>
</svg>
