<svg width="5942" height="1220" viewBox="0 0 5942 1220" fill="none" xmlns="http://www.w3.org/2000/svg">
<path d="M0.078125 49.5312H427.358C787.5 49.5312 1036.18 297.654 1036.18 621.286V624.609C1036.18 948.239 787.319 1199.69 427.358 1199.69H0.078125V49.5312ZM201.303 233.591V1015.62H427.178C667.763 1015.62 824.843 852.977 824.843 627.93V624.608C824.843 399.561 667.763 233.592 427.178 233.592L201.303 233.591Z" fill="#EE1064"/>
<path d="M1181.86 49.5312H1383.27V627.747L1928.27 49.5312H2177.13L1699.27 544.117L2198.47 1199.69H1952.91L1561.68 682.208L1383.27 866.27V1199.69H1181.86V49.5312Z" fill="#0090F2"/>
<path d="M2152.48 770.825V767.502C2152.48 519.378 2348.92 314.086 2613.97 314.086C2879.21 314.086 3073.99 516.24 3073.99 764.18V767.502C3073.99 1013.96 2877.54 1219.26 2610.84 1219.26C2347.26 1219.44 2152.48 1017.29 2152.48 770.825ZM2875.89 770.825V767.502C2875.89 614.64 2766.27 488.179 2610.66 488.179C2451.92 488.179 2350.39 612.979 2350.39 764.179V767.501C2350.39 918.701 2460.02 1045.16 2613.97 1045.16C2774.55 1045.16 2875.89 920.363 2875.89 770.825Z" fill="#0090F2"/>
<path d="M3177.17 332.179H3375.27V465.286C3431.01 384.793 3511.2 314.086 3645.29 314.086C3840.07 314.086 3953.01 445.532 3953.01 646.024V1199.69H3754.91V706.763C3754.91 571.993 3687.78 494.824 3569.87 494.824C3455.28 494.824 3375.09 575.317 3375.09 710.087V1199.69H3176.99V332.179H3177.17Z" fill="#0090F2"/>
<path d="M4023.45 1086.33L4111.93 951.56C4206.84 1022.27 4306.71 1058.27 4395 1058.27C4480.16 1058.27 4529.28 1022.09 4529.28 964.672V961.349C4529.28 893.965 4437.68 871.072 4336.14 839.872C4208.49 803.687 4066.13 751.072 4066.13 585.287V581.96C4066.13 417.652 4202.06 317.406 4373.85 317.406C4481.82 317.406 4599.72 355.252 4691.32 415.991L4612.78 557.222C4529.28 506.269 4440.98 475.068 4368.88 475.068C4291.99 475.068 4247.85 511.253 4247.85 560.545V563.868C4247.85 627.929 4341.1 654.145 4442.63 687.006C4568.63 726.514 4711 783.93 4711 939.93V943.26C4711 1125.66 4570.29 1215.94 4390.21 1215.94C4267.35 1216.12 4131.42 1171.81 4023.45 1086.33Z" fill="#0090F2"/>
<path d="M4805.91 884.181V332.181H5004.01V825.104C5004.01 959.874 5071.15 1035.38 5189.05 1035.38C5303.64 1035.38 5383.84 956.55 5383.84 821.781V332.18H5583.59V1199.69H5383.83V1064.92C5328.1 1147.07 5247.91 1217.78 5113.82 1217.78C4918.85 1217.78 4805.91 1086.33 4805.91 884.181Z" fill="#0090F2"/>
<path d="M5743.79 0.421875H5941.88V1199.68H5743.79V0.421875Z" fill="#0090F2"/>
</svg>
