<svg width="512" height="513" viewBox="0 0 512 513" fill="none" xmlns="http://www.w3.org/2000/svg">
<path d="M105.619 148.673C105.619 150.093 105.027 151.455 103.973 152.459C102.919 153.462 101.49 154.026 99.9988 154.026C98.5081 154.026 97.0785 153.462 96.0244 152.459C94.9704 151.455 94.3782 150.093 94.3782 148.673V148.18C93.024 150.105 91.1836 151.676 89.0261 152.747C86.8685 153.818 84.4629 154.356 82.0301 154.311C72.7897 154.311 64 147.395 64 134.779V134.638C64 122.015 72.6494 115.105 82.0301 115.105C84.4079 115.061 86.7635 115.549 88.9079 116.528C91.0522 117.508 92.9258 118.952 94.3782 120.746V107.066C94.3782 105.646 94.9704 104.285 96.0244 103.281C97.0785 102.277 98.5081 101.713 99.9988 101.713C101.49 101.713 102.919 102.277 103.973 103.281C105.027 104.285 105.619 105.646 105.619 107.066V148.666V148.673ZM75.2337 134.64V134.781C75.2337 141.058 79.6686 145.218 84.9174 145.218C90.1662 145.218 94.5284 141.058 94.5284 134.781V134.64C94.5284 128.363 90.1662 124.204 84.9174 124.204C79.6686 124.204 75.2337 128.294 75.2337 134.64Z" fill="#E51F66"/>
<path d="M111.97 107.12C111.97 105.701 112.562 104.34 113.616 103.337C114.67 102.333 116.099 101.77 117.589 101.77C119.079 101.77 120.508 102.333 121.561 103.337C122.615 104.34 123.207 105.701 123.207 107.12V130.528L137.258 117.836C137.864 117.132 138.618 116.557 139.471 116.146C140.323 115.736 141.257 115.499 142.211 115.451C142.869 115.447 143.521 115.568 144.129 115.809C144.737 116.049 145.289 116.403 145.75 116.85C146.212 117.296 146.575 117.827 146.818 118.41C147.061 118.992 147.179 119.615 147.164 120.242C147.103 121.149 146.84 122.033 146.393 122.836C145.947 123.639 145.326 124.342 144.572 124.9L135.697 132.162L146.27 145.77C147.134 146.74 147.629 147.958 147.675 149.228C147.676 149.88 147.54 150.525 147.274 151.126C147.009 151.726 146.619 152.269 146.128 152.723C145.638 153.177 145.056 153.533 144.419 153.769C143.781 154.005 143.1 154.116 142.416 154.096C141.444 154.147 140.476 153.943 139.616 153.508C138.756 153.072 138.038 152.421 137.538 151.625L127.707 138.723L123.199 142.598V148.735C123.199 150.154 122.607 151.515 121.554 152.518C120.5 153.522 119.071 154.085 117.581 154.085C116.091 154.085 114.662 153.522 113.608 152.518C112.555 151.515 111.963 150.154 111.963 148.735L111.97 107.12Z" fill="#1DA1DC"/>
<path d="M149.078 134.944V134.804C149.097 132.156 149.673 129.538 150.772 127.106C151.871 124.674 153.47 122.476 155.476 120.642C157.482 118.808 159.853 117.375 162.449 116.429C165.046 115.482 167.815 115.041 170.594 115.13C173.357 115.027 176.113 115.456 178.698 116.391C181.283 117.325 183.644 118.747 185.639 120.57C187.634 122.394 189.222 124.582 190.309 127.003C191.396 129.424 191.959 132.029 191.965 134.663V134.804C191.946 137.451 191.37 140.069 190.271 142.501C189.172 144.933 187.572 147.131 185.567 148.965C183.561 150.799 181.19 152.232 178.593 153.178C175.997 154.125 173.227 154.566 170.449 154.477C167.686 154.58 164.93 154.151 162.345 153.216C159.76 152.282 157.399 150.86 155.404 149.037C153.409 147.213 151.821 145.026 150.734 142.604C149.647 140.183 149.084 137.578 149.078 134.944ZM180.881 134.944V134.804C180.937 133.461 180.71 132.122 180.213 130.865C179.715 129.608 178.958 128.459 177.986 127.486C177.014 126.513 175.846 125.735 174.553 125.199C173.26 124.664 171.867 124.381 170.456 124.367C169.062 124.368 167.682 124.639 166.401 125.164C165.12 125.688 163.965 126.455 163.005 127.418C162.044 128.381 161.3 129.52 160.816 130.765C160.332 132.011 160.119 133.337 160.189 134.663V134.804C160.133 136.146 160.361 137.485 160.858 138.742C161.355 139.999 162.112 141.148 163.084 142.121C164.057 143.094 165.224 143.872 166.517 144.408C167.811 144.943 169.204 145.226 170.614 145.24C172.008 145.239 173.388 144.968 174.669 144.443C175.95 143.919 177.106 143.152 178.066 142.189C179.026 141.226 179.771 140.087 180.255 138.842C180.739 137.597 180.952 136.27 180.881 134.944Z" fill="#1DA1DC"/>
<path d="M196.387 120.753C196.387 119.334 196.979 117.973 198.033 116.97C199.086 115.966 200.515 115.403 202.005 115.403C203.495 115.403 204.924 115.966 205.978 116.97C207.032 117.973 207.624 119.334 207.624 120.753V121.178C208.884 119.334 210.603 117.816 212.628 116.758C214.653 115.701 216.921 115.136 219.23 115.115C227.73 115.115 232.685 120.474 232.685 129.148V148.681C232.685 150.1 232.093 151.461 231.04 152.464C229.986 153.468 228.557 154.031 227.067 154.031C225.577 154.031 224.148 153.468 223.095 152.464C222.041 151.461 221.449 150.1 221.449 148.681V132.53C221.449 127.455 218.945 124.848 214.648 124.848C210.351 124.848 207.621 127.455 207.621 132.53V148.669C207.621 150.088 207.029 151.449 205.976 152.452C204.922 153.456 203.493 154.019 202.003 154.019C200.513 154.019 199.084 153.456 198.03 152.452C196.977 151.449 196.385 150.088 196.385 148.669V120.765L196.387 120.753Z" fill="#1DA1DC"/>
<path d="M237.719 150.029C237.06 149.646 236.516 149.107 236.14 148.465C235.764 147.823 235.568 147.099 235.573 146.363C235.562 145.805 235.669 145.251 235.888 144.734C236.107 144.217 236.434 143.747 236.847 143.352C237.261 142.957 237.755 142.646 238.298 142.437C238.841 142.228 239.422 142.125 240.008 142.135C240.787 142.127 241.554 142.322 242.227 142.698C245.405 144.742 249.113 145.912 252.945 146.079C256.12 146.079 257.677 144.954 257.677 143.26V143.12C257.677 140.79 253.833 140.019 249.466 138.746C243.919 137.196 237.634 134.725 237.634 127.393V127.25C237.634 119.568 244.145 115.264 252.128 115.264C256.397 115.32 260.595 116.309 264.399 118.157C265.203 118.511 265.882 119.079 266.355 119.792C266.827 120.506 267.073 121.334 267.063 122.178C267.066 122.739 266.951 123.296 266.724 123.815C266.498 124.333 266.165 124.804 265.745 125.198C265.325 125.592 264.827 125.903 264.279 126.111C263.731 126.319 263.145 126.421 262.556 126.411C261.833 126.422 261.119 126.252 260.487 125.917C257.839 124.549 254.915 123.736 251.91 123.532C249.173 123.532 247.768 124.663 247.768 126.141V126.282C247.768 128.4 251.54 129.382 255.829 130.794C261.376 132.557 267.807 135.087 267.807 142.004V142.147C267.807 150.537 261.226 154.341 252.649 154.341C247.341 154.307 242.156 152.817 237.714 150.048L237.719 150.029Z" fill="#1DA1DC"/>
<path d="M308.166 148.712C308.166 150.132 307.574 151.493 306.52 152.497C305.466 153.501 304.036 154.065 302.546 154.065C301.055 154.065 299.625 153.501 298.571 152.497C297.517 151.493 296.925 150.132 296.925 148.712V148.288C295.665 150.131 293.946 151.649 291.921 152.707C289.896 153.765 287.628 154.329 285.318 154.35C276.804 154.35 271.863 148.994 271.863 140.317V120.785C271.863 119.366 272.455 118.005 273.509 117.001C274.562 115.998 275.991 115.434 277.481 115.434C278.971 115.434 280.4 115.998 281.454 117.001C282.508 118.005 283.1 119.366 283.1 120.785V136.935C283.1 142.011 285.604 144.622 289.901 144.622C294.198 144.622 296.928 142.013 296.928 136.935V120.785C296.928 119.365 297.52 118.003 298.574 117C299.628 115.996 301.058 115.432 302.548 115.432C304.039 115.432 305.468 115.996 306.523 117C307.577 118.003 308.169 119.365 308.169 120.785V148.707L308.166 148.712Z" fill="#1DA1DC"/>
<path d="M315.054 107.103C315.038 106.391 315.172 105.683 315.447 105.021C315.722 104.359 316.134 103.755 316.657 103.246C317.18 102.737 317.805 102.333 318.494 102.057C319.184 101.781 319.924 101.639 320.672 101.639C321.42 101.639 322.161 101.781 322.85 102.057C323.54 102.333 324.164 102.737 324.687 103.246C325.211 103.755 325.622 104.359 325.897 105.021C326.173 105.683 326.306 106.391 326.29 107.103V148.704C326.306 149.416 326.173 150.124 325.897 150.786C325.622 151.449 325.211 152.052 324.687 152.561C324.164 153.07 323.54 153.474 322.85 153.75C322.161 154.026 321.42 154.169 320.672 154.169C319.924 154.169 319.184 154.026 318.494 153.75C317.805 153.474 317.18 153.07 316.657 152.561C316.134 152.052 315.722 151.449 315.447 150.786C315.172 150.124 315.038 149.416 315.054 148.704V107.103Z" fill="#1DA1DC"/>
<path d="M392.027 154.019C390.901 153.967 389.839 153.505 389.061 152.728C388.283 151.951 387.849 150.919 387.849 149.845C387.849 148.771 388.283 147.739 389.061 146.962C389.839 146.185 390.901 145.723 392.027 145.671C395.031 145.666 397.911 144.527 400.034 142.502C402.157 140.477 403.35 137.734 403.351 134.872V111.176C403.35 108.315 402.157 105.571 400.034 103.546C397.911 101.522 395.031 100.382 392.027 100.377H391.359C388.881 100.382 386.473 101.158 384.502 102.588C382.531 104.017 381.104 106.022 380.44 108.295C380.13 109.362 379.388 110.269 378.376 110.815C377.365 111.361 376.167 111.502 375.046 111.207C373.925 110.912 372.974 110.205 372.4 109.241C371.827 108.278 371.679 107.137 371.989 106.07C373.164 102.036 375.694 98.4793 379.19 95.9422C382.686 93.4051 386.958 92.0268 391.353 92.0176H392.022C397.352 92.0264 402.461 94.0488 406.228 97.6409C409.995 101.233 412.111 106.102 412.113 111.178V134.865C412.111 139.942 409.995 144.81 406.228 148.402C402.461 151.995 397.352 154.017 392.022 154.026L392.027 154.019Z" fill="#E51F66"/>
<path d="M392.022 154.052H367.183C361.852 154.043 356.743 152.02 352.977 148.428C349.21 144.836 347.094 139.968 347.092 134.891V134.254C347.094 129.178 349.21 124.309 352.977 120.717C356.743 117.125 361.852 115.103 367.183 115.094H385.281C386.407 115.145 387.469 115.607 388.246 116.384C389.024 117.161 389.458 118.194 389.458 119.267C389.458 120.341 389.024 121.373 388.246 122.151C387.469 122.928 386.407 123.39 385.281 123.441H367.195C364.191 123.446 361.312 124.586 359.189 126.61C357.066 128.635 355.873 131.379 355.871 134.24V134.877C355.873 137.738 357.066 140.482 359.189 142.506C361.312 144.531 364.191 145.671 367.195 145.676H392.034C393.16 145.727 394.222 146.189 395 146.966C395.778 147.743 396.212 148.776 396.212 149.849C396.212 150.923 395.778 151.955 395 152.733C394.222 153.51 393.16 153.972 392.034 154.023L392.022 154.052Z" fill="#E51F66"/>
<path d="M402.857 187.411H402.189C396.858 187.402 391.749 185.379 387.983 181.787C384.216 178.195 382.1 173.327 382.098 168.25V144.563C382.1 139.486 384.216 134.618 387.983 131.026C391.749 127.434 396.858 125.411 402.189 125.402C403.315 125.454 404.377 125.916 405.155 126.693C405.933 127.47 406.367 128.502 406.367 129.576C406.367 130.65 405.933 131.682 405.155 132.459C404.377 133.236 403.315 133.698 402.189 133.75C399.184 133.755 396.305 134.895 394.182 136.919C392.059 138.944 390.866 141.687 390.865 144.549V168.236C390.866 171.097 392.059 173.841 394.182 175.865C396.305 177.89 399.184 179.03 402.189 179.035H402.857C405.335 179.03 407.743 178.253 409.714 176.824C411.685 175.394 413.111 173.39 413.776 171.117C413.929 170.588 414.19 170.094 414.544 169.662C414.898 169.23 415.338 168.868 415.839 168.598C416.34 168.327 416.892 168.154 417.463 168.086C418.034 168.019 418.614 168.06 419.168 168.206C419.723 168.352 420.242 168.601 420.696 168.938C421.15 169.275 421.53 169.694 421.813 170.171C422.097 170.648 422.28 171.173 422.35 171.718C422.421 172.262 422.378 172.814 422.225 173.342C421.049 177.376 418.52 180.932 415.023 183.469C411.527 186.006 407.255 187.385 402.86 187.394L402.857 187.411Z" fill="#E51F66"/>
<path d="M427.041 164.339H408.956C407.83 164.287 406.768 163.825 405.99 163.048C405.212 162.271 404.778 161.239 404.778 160.165C404.778 159.091 405.212 158.059 405.99 157.282C406.768 156.505 407.83 156.043 408.956 155.991H427.041C430.046 155.985 432.925 154.844 435.047 152.818C437.169 150.792 438.361 148.047 438.36 145.185V144.549C438.359 141.687 437.166 138.944 435.043 136.919C432.92 134.894 430.041 133.755 427.036 133.75H402.197C401.071 133.698 400.009 133.236 399.231 132.459C398.454 131.682 398.02 130.65 398.02 129.576C398.02 128.502 398.454 127.47 399.231 126.693C400.009 125.916 401.071 125.454 402.197 125.402H427.036C432.367 125.411 437.476 127.434 441.242 131.026C445.009 134.618 447.125 139.486 447.127 144.563V145.2C447.125 150.276 445.009 155.145 441.242 158.737C437.476 162.329 432.367 164.351 427.036 164.36L427.041 164.339Z" fill="#E51F66"/>
<path d="M435.056 115.034C441.725 115.034 447.131 109.877 447.131 103.517C447.131 97.1563 441.725 92 435.056 92C428.387 92 422.98 97.1563 422.98 103.517C422.98 109.877 428.387 115.034 435.056 115.034Z" fill="#1DA1DC"/>
<path d="M139.019 422.227C129.345 422.227 121.035 420.336 114.09 416.555C107.144 412.774 101.811 407.439 98.09 400.55C94.4519 393.66 92.6328 385.594 92.6328 376.352C92.6328 369.462 93.6664 363.203 95.7335 357.574C97.8833 351.944 100.943 347.113 104.912 343.08C108.963 339.047 113.841 335.981 119.547 333.88C125.335 331.696 131.825 330.604 139.019 330.604C142.823 330.604 146.75 331.066 150.802 331.99C154.936 332.83 158.574 334.132 161.716 335.897C164.031 337.157 165.644 338.753 166.553 340.686C167.463 342.618 167.752 344.593 167.421 346.609C167.173 348.626 166.47 350.432 165.313 352.028C164.155 353.625 162.667 354.717 160.848 355.305C159.029 355.809 157.044 355.515 154.895 354.423C152.414 353.247 149.933 352.365 147.453 351.776C145.055 351.104 142.533 350.768 139.887 350.768C134.761 350.768 130.461 351.776 126.988 353.793C123.598 355.725 121.035 358.582 119.299 362.363C117.562 366.144 116.694 370.807 116.694 376.352C116.694 381.897 117.562 386.602 119.299 390.467C121.035 394.248 123.598 397.147 126.988 399.163C130.461 401.096 134.761 402.062 139.887 402.062C142.037 402.062 144.352 401.81 146.833 401.306C149.313 400.718 151.753 399.836 154.15 398.659C156.631 397.567 158.822 397.273 160.724 397.777C162.708 398.281 164.279 399.289 165.437 400.802C166.677 402.314 167.463 404.078 167.793 406.095C168.124 408.027 167.835 409.96 166.925 411.892C166.098 413.825 164.61 415.379 162.46 416.555C159.566 418.32 155.969 419.706 151.67 420.714C147.453 421.723 143.236 422.227 139.019 422.227Z" fill="#3D7E91"/>
<path d="M194.272 421.975C191.709 421.975 189.559 421.386 187.822 420.21C186.086 418.95 185.011 417.27 184.598 415.169C184.184 412.985 184.556 410.548 185.714 407.859L216.597 340.308C218.085 337.031 219.904 334.636 222.054 333.124C224.286 331.612 226.808 330.856 229.62 330.856C232.431 330.856 234.87 331.612 236.937 333.124C239.087 334.636 240.947 337.031 242.518 340.308L273.401 407.859C274.724 410.548 275.179 412.985 274.766 415.169C274.435 417.354 273.401 419.034 271.665 420.21C270.011 421.386 267.944 421.975 265.463 421.975C262.156 421.975 259.593 421.218 257.774 419.706C256.037 418.194 254.466 415.757 253.061 412.396L246.363 396.391L255.045 402.818H203.946L212.752 396.391L206.054 412.396C204.566 415.757 203.036 418.194 201.465 419.706C199.894 421.218 197.496 421.975 194.272 421.975ZM229.372 356.187L214.984 391.097L211.512 385.048H247.604L244.131 391.097L229.62 356.187H229.372Z" fill="#3D7E91"/>
<path d="M307.562 421.975C303.923 421.975 301.112 420.966 299.128 418.95C297.143 416.849 296.151 413.951 296.151 410.254V343.711C296.151 339.93 297.143 337.031 299.128 335.015C301.195 332.998 304.047 331.99 307.686 331.99H338.196C348.119 331.99 355.767 334.468 361.141 339.426C366.599 344.299 369.327 351.104 369.327 359.842C369.327 365.472 368.087 370.387 365.606 374.588C363.208 378.705 359.694 381.897 355.064 384.166C350.516 386.35 344.894 387.443 338.196 387.443L339.189 385.174H345.142C348.697 385.174 351.839 386.056 354.568 387.821C357.297 389.501 359.57 392.106 361.389 395.635L367.591 406.977C368.914 409.414 369.534 411.808 369.451 414.161C369.369 416.429 368.459 418.32 366.723 419.832C365.069 421.26 362.63 421.975 359.405 421.975C356.18 421.975 353.534 421.302 351.467 419.958C349.483 418.614 347.705 416.513 346.134 413.657L334.848 392.61C333.855 390.761 332.574 389.501 331.003 388.829C329.514 388.073 327.778 387.695 325.794 387.695H318.972V410.254C318.972 413.951 318.021 416.849 316.119 418.95C314.218 420.966 311.365 421.975 307.562 421.975ZM318.972 371.311H334.103C338.486 371.311 341.834 370.429 344.15 368.664C346.465 366.9 347.622 364.169 347.622 360.472C347.622 356.944 346.465 354.297 344.15 352.533C341.834 350.684 338.486 349.76 334.103 349.76H318.972V371.311Z" fill="#3D7E91"/>
<path d="M397.461 420.84C393.575 420.84 390.598 419.832 388.531 417.816C386.546 415.715 385.554 412.732 385.554 408.868V343.963C385.554 340.098 386.546 337.157 388.531 335.141C390.598 333.04 393.575 331.99 397.461 331.99H439.506C442.483 331.99 444.715 332.746 446.204 334.258C447.692 335.771 448.436 337.955 448.436 340.812C448.436 343.753 447.692 346.021 446.204 347.617C444.715 349.13 442.483 349.886 439.506 349.886H407.383V366.774H436.777C439.671 366.774 441.863 367.53 443.351 369.042C444.922 370.555 445.707 372.781 445.707 375.722C445.707 378.663 444.922 380.889 443.351 382.401C441.863 383.914 439.671 384.67 436.777 384.67H407.383V402.944H439.506C442.483 402.944 444.715 403.742 446.204 405.339C447.692 406.851 448.436 409.036 448.436 411.892C448.436 414.833 447.692 417.059 446.204 418.572C444.715 420.084 442.483 420.84 439.506 420.84H397.461Z" fill="#3D7E91"/>
<path d="M75.5947 297.9C71.8978 297.9 69.0412 296.892 67.0247 294.876C65.0082 292.775 64 289.835 64 286.054V218.628C64 214.763 65.0082 211.823 67.0247 209.806C69.0412 207.79 71.8978 206.781 75.5947 206.781C79.3755 206.781 82.2322 207.79 84.1647 209.806C86.1811 211.823 87.1894 214.763 87.1894 218.628V242.196H123.864V218.628C123.864 214.763 124.83 211.823 126.762 209.806C128.779 207.79 131.678 206.781 135.459 206.781C139.155 206.781 141.97 207.79 143.902 209.806C145.919 211.823 146.927 214.763 146.927 218.628V286.054C146.927 289.835 145.919 292.775 143.902 294.876C141.97 296.892 139.155 297.9 135.459 297.9C131.678 297.9 128.779 296.892 126.762 294.876C124.83 292.775 123.864 289.835 123.864 286.054V261.226H87.1894V286.054C87.1894 289.835 86.2231 292.775 84.2907 294.876C82.3582 296.892 79.4596 297.9 75.5947 297.9Z" fill="#3D7E91"/>
<path d="M208.176 298.152C199.186 298.152 191.288 296.262 184.483 292.481C177.677 288.616 172.384 283.239 168.603 276.349C164.906 269.46 163.058 261.436 163.058 252.278C163.058 245.388 164.108 239.129 166.208 233.5C168.393 227.87 171.46 223.039 175.408 219.006C179.441 214.973 184.23 211.907 189.776 209.806C195.321 207.622 201.454 206.529 208.176 206.529C217.166 206.529 225.022 208.42 231.743 212.201C238.549 215.981 243.842 221.317 247.623 228.206C251.404 235.012 253.294 243.036 253.294 252.278C253.294 259.167 252.202 265.427 250.018 271.056C247.917 276.685 244.85 281.559 240.818 285.676C236.869 289.708 232.122 292.817 226.576 295.002C221.031 297.102 214.898 298.152 208.176 298.152ZM208.176 278.744C212.629 278.744 216.41 277.694 219.519 275.593C222.627 273.493 225.022 270.468 226.702 266.519C228.383 262.57 229.223 257.823 229.223 252.278C229.223 243.96 227.374 237.49 223.678 232.869C219.981 228.248 214.814 225.938 208.176 225.938C203.807 225.938 200.026 226.988 196.833 229.089C193.725 231.105 191.33 234.088 189.65 238.037C187.969 241.901 187.129 246.649 187.129 252.278C187.129 260.596 188.978 267.107 192.674 271.812C196.371 276.433 201.538 278.744 208.176 278.744Z" fill="#3D7E91"/>
<path d="M279.949 297.9C276.589 297.9 273.984 296.976 272.135 295.128C270.371 293.279 269.489 290.675 269.489 287.314V217.368C269.489 213.923 270.455 211.318 272.388 209.554C274.32 207.706 277.051 206.781 280.579 206.781C283.52 206.781 285.831 207.369 287.511 208.546C289.275 209.638 290.872 211.486 292.3 214.091L319.396 262.738H314.985L341.956 214.091C343.468 211.486 345.064 209.638 346.745 208.546C348.509 207.369 350.862 206.781 353.802 206.781C357.163 206.781 359.726 207.706 361.49 209.554C363.339 211.318 364.263 213.923 364.263 217.368V287.314C364.263 290.675 363.381 293.279 361.616 295.128C359.852 296.976 357.247 297.9 353.802 297.9C350.442 297.9 347.837 296.976 345.989 295.128C344.224 293.279 343.342 290.675 343.342 287.314V243.96H345.989L325.698 279.248C324.522 281.097 323.261 282.483 321.917 283.407C320.657 284.331 318.934 284.793 316.75 284.793C314.649 284.793 312.927 284.331 311.583 283.407C310.238 282.483 309.02 281.097 307.928 279.248L287.511 243.834H290.41V287.314C290.41 290.675 289.528 293.279 287.763 295.128C285.999 296.976 283.394 297.9 279.949 297.9Z" fill="#3D7E91"/>
<path d="M394.969 296.766C391.02 296.766 387.996 295.758 385.895 293.741C383.879 291.641 382.87 288.658 382.87 284.793V219.888C382.87 216.023 383.879 213.083 385.895 211.066C387.996 208.966 391.02 207.916 394.969 207.916H437.693C440.718 207.916 442.986 208.672 444.499 210.184C446.011 211.696 446.767 213.881 446.767 216.738C446.767 219.678 446.011 221.947 444.499 223.543C442.986 225.056 440.718 225.812 437.693 225.812H405.052V242.7H434.921C437.861 242.7 440.088 243.456 441.6 244.968C443.196 246.481 443.995 248.707 443.995 251.648C443.995 254.588 443.196 256.815 441.6 258.327C440.088 259.84 437.861 260.596 434.921 260.596H405.052V278.87H437.693C440.718 278.87 442.986 279.668 444.499 281.265C446.011 282.777 446.767 284.961 446.767 287.818C446.767 290.759 446.011 292.985 444.499 294.498C442.986 296.01 440.718 296.766 437.693 296.766H394.969Z" fill="#3D7E91"/>
</svg>
